Coordinates
version=1
nRows=60
nColumns=12
inDegrees=yes

Units are S.I. units (second, meters, Newtons, ...)
Angles are in degrees

endheader
time	SC_y	SC_z	SC_x	AC_y	AC_z	AC_x	GH_y	GH_z	GH_yy	EL_x	PS_y
       0.0              -51.32        -0.2008          14.97          62.73         -13.94         -8.487          77.45          53.84         -171.3          136.4          58.53
   0.03648              -51.32        -0.2004          14.98          62.73         -13.93         -8.483          77.46          53.84         -171.3          136.4          58.53
   0.07297              -51.32        -0.1999          14.99          62.73         -13.93          -8.48          77.46          53.84         -171.3          136.4          58.53
    0.1094              -51.32        -0.1993           15.0          62.73         -13.93         -8.476          77.47          53.84         -171.2          136.4          58.53
    0.1459              -51.32        -0.1988           15.0          62.72         -13.92         -8.473          77.47          53.85         -171.2          136.4          58.53
    0.1824              -51.32        -0.1982          15.01          62.72         -13.92         -8.469          77.48          53.85         -171.2          136.3          58.53
    0.2189              -51.32        -0.1976          15.02          62.72         -13.92         -8.464          77.49          53.85         -171.1          136.3          58.53
    0.2554              -51.32        -0.1969          15.03          62.71         -13.91          -8.46          77.49          53.86         -171.1          136.3          58.53
    0.2919              -51.32        -0.1962          15.04          62.71         -13.91         -8.455           77.5          53.86         -171.1          136.3          58.54
    0.3283              -51.32        -0.1954          15.05          62.71          -13.9         -8.449          77.51          53.87         -171.0          136.2          58.54
    0.3648              -51.32        -0.1946          15.07           62.7          -13.9         -8.444          77.52          53.87         -171.0          136.2          58.54
    0.4013              -51.32        -0.1937          15.08           62.7         -13.89         -8.437          77.53          53.88         -170.9          136.2          58.54
    0.4378              -51.32        -0.1927           15.1           62.7         -13.88         -8.431          77.53          53.88         -170.9          136.1          58.54
    0.4743              -51.32        -0.1917          15.11          62.69         -13.88         -8.424          77.54          53.89         -170.8          136.1          58.54
    0.5108              -51.32        -0.1905          15.13          62.69         -13.87         -8.416          77.56          53.89         -170.7          136.1          58.55
    0.5472              -51.33        -0.1893          15.15          62.68         -13.86         -8.407          77.57           53.9         -170.7          136.0          58.55
    0.5837              -51.33         -0.188          15.17          62.68         -13.85         -8.398          77.58          53.91         -170.6          136.0          58.55
    0.6202              -51.33        -0.1865          15.19          62.67         -13.84         -8.388           77.6          53.91         -170.5          135.9          58.56
    0.6567              -51.33        -0.1849          15.21          62.66         -13.83         -8.377          77.61          53.92         -170.4          135.9          58.56
    0.6932              -51.33        -0.1832          15.24          62.66         -13.82         -8.365          77.63          53.93         -170.3          135.8          58.56
    0.7297              -51.33        -0.1813          15.27          62.65         -13.81         -8.352          77.65          53.94         -170.2          135.7          58.57
    0.7661              -51.33        -0.1792           15.3          62.64          -13.8         -8.338          77.67          53.95         -170.1          135.6          58.57
    0.8026              -51.33        -0.1769          15.33          62.63         -13.78         -8.322          77.69          53.97         -169.9          135.6          58.58
    0.8391              -51.33        -0.1743          15.37          62.62         -13.76         -8.304          77.72          53.98         -169.8          135.5          58.58
    0.8756              -51.33        -0.1715          15.41          62.61         -13.75         -8.285          77.74          53.99         -169.6          135.4          58.59
    0.9121              -51.33        -0.1683          15.46          62.59         -13.73         -8.263          77.78          54.01         -169.4          135.2          58.59
    0.9486              -51.33        -0.1647          15.52          62.58          -13.7         -8.238          77.81          54.03         -169.2          135.1           58.6
     0.985              -51.33        -0.1607          15.58          62.56         -13.68          -8.21          77.85          54.05         -169.0          135.0          58.61
     1.022              -51.33        -0.1562          15.64          62.54         -13.65         -8.179           77.9          54.08         -168.7          134.8          58.62
     1.058              -51.33        -0.1511          15.72          62.52         -13.61         -8.144          77.95           54.1         -168.4          134.6          58.63
     1.094              -51.33        -0.1452          15.81          62.49         -13.58         -8.103           78.0          54.14         -168.1          134.4          58.64
     1.131              -51.34        -0.1385          15.91          62.47         -13.53         -8.057          78.07          54.17         -167.7          134.2          58.66
     1.167              -51.34        -0.1307          16.03          62.43         -13.48         -8.003          78.15          54.21         -167.2          133.9          58.67
     1.204              -51.34        -0.1217          16.17          62.39         -13.42         -7.941          78.24          54.26         -166.7          133.5          58.69
      1.24              -51.34        -0.1111          16.32          62.35         -13.35         -7.868          78.34          54.32         -166.1          133.2          58.71
     1.277              -51.34       -0.09865          16.51           62.3         -13.27         -7.783          78.47          54.39         -165.4          132.7          58.74
     1.313              -51.35       -0.08385          16.73          62.23         -13.18         -7.681          78.61          54.47         -164.5          132.2          58.77
      1.35              -51.35        -0.0661           17.0          62.16         -13.06         -7.558          78.79          54.56         -163.4          131.5          58.81
     1.386              -51.36       -0.04464          17.33          62.07         -12.92          -7.41           79.0          54.68         -162.2          130.7          58.85
     1.423              -51.36       -0.01841          17.72          61.96         -12.75          -7.23          79.26          54.82         -160.7          129.8          58.91
     1.459              -51.37        0.01395          18.21          61.82         -12.54         -7.007          79.58          54.99         -158.8          128.6          58.98
     1.496              -51.38        0.05431          18.82          61.65         -12.28         -6.728          79.98          55.21         -156.4          127.1          59.06
     1.532              -51.39         0.1052          19.58          61.43         -11.95         -6.378          80.48          55.48         -153.4          125.3          59.17
     1.569               -51.4         0.1698          20.56          61.16         -11.53         -5.933          81.12          55.83         -149.6          122.9           59.3
     1.605              -51.42         0.2525           21.8           60.8         -10.99         -5.363          81.94          56.28         -144.8          119.9          59.48
     1.642              -51.44         0.3587           23.4          60.35          -10.3         -4.631          82.99          56.85         -138.6          116.0           59.7
     1.678              -51.47         0.4943          25.44          59.77         -9.417         -3.696          84.33          57.58         -130.6          111.0          59.98
     1.715              -51.51         0.6648          28.01          59.05         -8.308         -2.521          86.02          58.49         -120.7          104.8          60.34
     1.751              -51.56         0.8726          31.14          58.17         -6.957         -1.089          88.08          59.61         -108.5           97.2          60.78
     1.788              -51.61          1.113          34.77          57.14         -5.391         0.5705          90.46          60.91         -94.39           88.4          61.28
     1.824              -51.66          1.374           38.7          56.03         -3.695          2.368          93.04          62.31         -79.12          78.87          61.83
     1.861              -51.72          1.635          42.63          54.92         -1.999          4.165          95.62          63.71         -63.86          69.34          62.38
     1.897              -51.77          1.876          46.26           53.9        -0.4334          5.825          98.01          65.01         -49.76          60.53          62.88
     1.934              -51.82          2.084          49.39          53.01         0.9178          7.257          100.1          66.13         -37.59          52.94          63.32
      1.97              -51.85          2.254          51.95          52.29          2.026          8.432          101.7          67.05         -27.61          46.71          63.68
     2.007              -51.88           2.39           54.0          51.71          2.908          9.366          103.1          67.77         -19.67          41.75          63.96
     2.043              -51.91          2.496           55.6          51.26          3.599           10.1          104.1          68.35         -13.46          37.87          64.19
      2.08              -51.92          2.579          56.84          50.91          4.136          10.67          105.0          68.79         -8.612          34.85          64.36
     2.116              -51.94          2.643          57.82          50.63          4.557          11.11          105.6          69.14         -4.828          32.48          64.49
     2.152              -51.95          2.694          58.58          50.42          4.887          11.46          106.1          69.41         -1.852          30.63           64.6
